<svg id="02n" xmlns="http://www.w3.org/2000/svg" viewBox="0 0 128 128"><circle fill="#ffe8a6" r="30" cy="41.751" cx="94.999"/><g fill="#f4dc9f"><circle r="7" cy="44.951" cx="112.999"/><circle r="6" cy="48.751" cx="81.099"/><circle r="9" cy="59.751" cx="87.199"/><circle r="4" cy="26.951" cx="86.999"/><circle r="4" cy="27.951" cx="99.999"/><circle r="4" cy="35.651" cx="75.099"/><circle r="2" cy="18.951" cx="101.999"/><circle r="2" cy="48.751" cx="71.099"/><circle r="2" cy="59.751" cx="114.999"/><circle r="3" cy="39.651" cx="87.999"/><circle r="2" cy="25.451" cx="77.999"/><circle r="4" cy="62.351" cx="108.999"/><path d="M87.2 20.55c0 2.8 2.2 5 5 5s5-2.2 5-5-2.2-5-5-5c-2.8-.1-5 2.2-5 5"/></g><path fill="#e3ebee" d="M105.88 61.54h-.01c0-.07.01-.13.01-.2 0-9.27-7.51-16.78-16.78-16.78-1.19 0-2.35.13-3.48.37-3.32-8.09-11.27-13.79-20.56-13.79-6.97 0-13.19 3.22-17.27 8.24-2.62-1.33-5.58-2.1-8.73-2.1-10.04 0-18.28 7.65-19.24 17.43C8.9 55.29.15 64.24 0 75.34-.15 86.91 9.11 96.4 20.68 96.55c.9.01 1.78-.05 2.65-.15 4.47 9.42 14.06 15.94 25.19 15.94 6.71 0 12.86-2.37 17.67-6.32 3.68 2.72 8.21 4.35 13.14 4.35 10.11 0 18.61-6.78 21.26-16.04 1.67.55 3.44.86 5.29.86 9.29 0 16.83-7.53 16.83-16.83 0-9.28-7.54-16.82-16.83-16.82z"/><path fill="#b9cdd2" d="M115.77 64.75c3.81 3.85 1.12 12.68-1.51 15.56-5.16 5.65-14.63 4.33-18.43 3.52-1.03-.22-1.19-.15-1.53.06-.3.18-.44.47-.76 1.17-1.23 2.64-4.38 7.75-11.05 9.81-6.95 2.15-13.51-1.12-16.58-3.08-1.16-.74-1.21-.76-1.74-.75-.53.01-1.06.4-1.69.89-2.77 2.18-9.11 6.03-18.88 5.47-9.58-.55-15.06-6.45-16.93-9.49-.36-.58-.75-1.07-1.19-1.12-.51-.05-1.08.48-1.51.9-4.08 3.97-16.89 5.16-21.15-1.6 4.32 6.94 11.01 10.37 17.86 10.46.9.01 1.78-.05 2.65-.15 4.47 9.42 14.06 15.94 25.19 15.94 6.71 0 12.86-2.37 17.67-6.32 3.68 2.72 8.21 4.35 13.14 4.35 10.11 0 18.61-6.78 21.26-16.04 1.67.55 3.44.86 5.29.86 9.29 0 16.83-7.53 16.83-16.83 0-4.94-2.49-10.52-6.94-13.61z"/></svg>