<svg id="04n" xmlns="http://www.w3.org/2000/svg" viewBox="0 0 128 128"><path d="M109.404 29.788h-.008c0-.057.008-.107.008-.164 0-7.627-6.178-13.806-13.805-13.806-.98 0-1.933.107-2.863.305C90.004 9.467 83.464 4.777 75.82 4.777c-5.735 0-10.852 2.65-14.209 6.78a15.817 15.817 0 0 0-7.182-1.728c-8.26 0-15.04 6.294-15.83 14.34-8.983.477-16.182 7.84-16.306 16.973-.123 9.519 7.495 17.326 17.014 17.45a17.34 17.34 0 0 0 2.18-.124c3.678 7.75 11.568 13.114 20.725 13.114 5.52 0 10.58-1.95 14.537-5.2 3.028 2.239 6.755 3.58 10.811 3.58 8.318 0 15.31-5.578 17.491-13.197 1.374.453 2.83.708 4.352.708 7.643 0 13.847-6.195 13.847-13.847 0-7.635-6.204-13.838-13.847-13.838h.001z" fill="#c6c4c4"/><path d="M116.89 32.429c3.135 3.168.922 10.432-1.242 12.802-4.245 4.648-12.036 3.562-15.163 2.896-.847-.181-.979-.124-1.258.049-.247.148-.362.387-.626.963-1.012 2.172-3.603 6.376-9.09 8.07-5.719 1.77-11.116-.921-13.641-2.534-.955-.608-.996-.625-1.432-.617-.436.009-.872.33-1.39.733-2.28 1.793-7.495 4.96-15.533 4.5-7.882-.453-12.39-5.307-13.93-7.808-.295-.477-.616-.88-.978-.921-.42-.041-.889.395-1.242.74-3.357 3.266-13.896 4.246-17.401-1.316 3.554 5.71 9.058 8.532 14.694 8.606a17.34 17.34 0 0 0 2.18-.124c3.678 7.75 11.567 13.114 20.724 13.114 5.52 0 10.58-1.95 14.538-5.2 3.027 2.239 6.754 3.58 10.81 3.58 8.318 0 15.311-5.578 17.491-13.197a13.85 13.85 0 0 0 4.353.708c7.643 0 13.846-6.195 13.846-13.847 0-4.064-2.048-8.655-5.71-11.197z" fill="#909da0"/><path d="M90.65 70.546h-.007c0-.058.008-.107.008-.165 0-7.626-6.179-13.805-13.806-13.805-.979 0-1.933.107-2.863.304-2.731-6.656-9.272-11.345-16.915-11.345-5.734 0-10.851 2.65-14.208 6.78a15.817 15.817 0 0 0-7.183-1.729c-8.26 0-15.039 6.294-15.829 14.34-8.984.478-16.183 7.841-16.306 16.973-.123 9.52 7.495 17.327 17.014 17.45a17.34 17.34 0 0 0 2.18-.123c3.678 7.75 11.568 13.114 20.724 13.114 5.52 0 10.58-1.95 14.538-5.2 3.028 2.238 6.754 3.58 10.81 3.58 8.318 0 15.311-5.579 17.492-13.197 1.373.452 2.83.707 4.352.707 7.643 0 13.846-6.195 13.846-13.846 0-7.635-6.203-13.838-13.846-13.838h-.001z" fill="#e3ebee"/><path d="M98.137 73.187c3.135 3.167.921 10.432-1.242 12.801-4.246 4.649-12.037 3.563-15.163 2.896-.848-.18-.98-.123-1.259.05-.247.148-.362.386-.625.962-1.012 2.172-3.604 6.376-9.091 8.071-5.718 1.769-11.115-.921-13.641-2.534-.954-.609-.995-.625-1.432-.617-.436.008-.872.33-1.39.732-2.279 1.794-7.495 4.961-15.533 4.5-7.882-.452-12.39-5.306-13.929-7.807-.296-.477-.617-.88-.979-.922-.42-.04-.888.395-1.242.74-3.357 3.267-13.896 4.246-17.4-1.315 3.554 5.71 9.058 8.531 14.693 8.605a17.34 17.34 0 0 0 2.18-.123c3.678 7.75 11.568 13.114 20.725 13.114 5.52 0 10.58-1.95 14.537-5.2 3.028 2.238 6.755 3.58 10.81 3.58 8.319 0 15.312-5.579 17.492-13.197 1.374.452 2.83.707 4.352.707 7.643 0 13.847-6.195 13.847-13.846 0-4.064-2.049-8.655-5.71-11.197z" fill="#b9cdd2"/></svg>