<svg id="10n" xmlns="http://www.w3.org/2000/svg" viewBox="0 0 128 128"><path d="M22.95 92.28c-.21-.08-.44-.12-.66-.1-1.31.09-8.15 6.19-9.94 10.59-1.22 3 .23 6.43 3.23 7.65 3 1.22 6.44-.23 7.66-3.23 1.35-3.33 1.72-14.09-.29-14.91m21.73 16.2c-.21-.09-.44-.12-.66-.1-1.31.09-8.15 6.19-9.94 10.59-1.22 3 .23 6.43 3.23 7.65 3 1.22 6.44-.23 7.66-3.23 1.35-3.32 1.72-14.09-.29-14.91m26.99-11.59c-.21-.09-.44-.12-.66-.11-1.31.09-8.15 6.19-9.94 10.59-1.22 3 .23 6.43 3.23 7.65 3 1.22 6.44-.23 7.66-3.23 1.35-3.32 1.72-14.08-.29-14.9m24.56 7.09c-.21-.08-.44-.12-.66-.1-1.31.09-8.15 6.19-9.94 10.59-1.22 2.99.23 6.43 3.23 7.65 3 1.22 6.44-.23 7.66-3.23 1.35-3.33 1.72-14.1-.29-14.91" fill="#70b2e2"/><circle cy="41.309" cx="91.34" fill="#eaeaaf" r="22.783"/><path d="M95.72 52.87c-.01-.06 0-.11 0-.17 0-7.64-6.19-13.83-13.83-13.83-.98 0-1.94.11-2.87.3-2.74-6.67-9.29-11.37-16.95-11.37-5.75 0-10.88 2.65-14.24 6.8-2.16-1.1-4.6-1.73-7.2-1.73-8.28 0-15.07 6.31-15.86 14.37-9.01.47-16.23 7.85-16.35 17-.12 9.54 7.51 17.37 17.05 17.49.74.01 1.47-.04 2.18-.12 3.68 7.77 11.6 13.14 20.77 13.14 5.53 0 10.61-1.96 14.57-5.21 3.03 2.24 6.77 3.59 10.83 3.59 8.33 0 15.35-5.59 17.53-13.22 1.37.46 2.84.71 4.36.71 7.66 0 13.87-6.21 13.87-13.87.02-7.66-6.2-13.88-13.86-13.88z" fill="#e3ebee"/><path d="M103.88 55.52c3.14 3.17.92 10.45-1.24 12.83-4.25 4.66-12.06 3.57-15.2 2.9-.85-.18-.98-.12-1.26.05-.25.15-.36.39-.63.96-1.01 2.17-3.61 6.39-9.11 8.09-5.73 1.77-11.14-.92-13.67-2.54-.96-.61-1-.62-1.43-.62-.44 0-.88.33-1.39.74-2.28 1.8-7.51 4.97-15.56 4.51-7.9-.45-12.41-5.32-13.96-7.82-.3-.48-.62-.88-.98-.92-.42-.04-.89.39-1.25.74-3.36 3.27-13.93 4.25-17.44-1.32 3.56 5.72 9.07 8.55 14.73 8.62.74.01 1.47-.04 2.18-.12 3.68 7.77 11.6 13.14 20.77 13.14 5.53 0 10.61-1.96 14.57-5.21 3.03 2.24 6.77 3.59 10.83 3.59 8.33 0 15.35-5.59 17.53-13.22 1.37.46 2.84.71 4.36.71 7.66 0 13.87-6.21 13.87-13.87 0-4.09-2.05-8.7-5.72-11.24z" fill="#b9cdd2"/></svg>